<?xml version="1.0" standalone="no"?>
<!DOCTYPE svg PUBLIC "-//W3C//DTD SVG 20010904//EN"
 "http://www.w3.org/TR/2001/REC-SVG-20010904/DTD/svg10.dtd">
<svg version="1.0" xmlns="http://www.w3.org/2000/svg"
 width="300.000000pt" height="66.000000pt" viewBox="0 0 300.000000 66.000000"
 preserveAspectRatio="xMidYMid meet">

<g transform="translate(0.000000,66.000000) scale(0.100000,-0.100000)"
fill="#000000" stroke="none">
<path d="M1962 343 l3 -248 498 -3 497 -2 0 250 0 250 -500 0 -500 0 2 -247z
m978 2 l0 -225 -480 0 -480 0 0 225 0 225 480 0 480 0 0 -225z"/>
<path d="M2071 458 c-17 -23 -31 -46 -31 -50 0 -4 63 -8 140 -8 87 0 140 -4
140 -10 0 -6 -33 -10 -79 -10 l-78 0 -27 -38 c-27 -39 -32 -53 -18 -51 39 6
212 -3 207 -11 -4 -6 -56 -10 -123 -10 l-117 -1 -32 -44 c-18 -24 -33 -47 -33
-50 0 -9 304 -5 342 5 67 19 98 87 63 138 -12 16 -13 27 -5 41 15 28 12 73 -5
98 -22 32 -75 43 -202 43 l-111 0 -31 -42z m302 11 c30 -16 37 -28 37 -66 0
-22 -7 -37 -20 -45 -25 -16 -25 -24 0 -31 22 -6 35 -46 26 -82 -11 -45 -50
-55 -216 -55 l-151 0 21 30 21 30 112 0 c119 0 141 6 135 36 -3 17 -15 20
-102 24 l-98 5 18 22 c16 19 30 23 99 25 78 3 80 4 80 28 l0 25 -133 5 -134 5
22 28 c21 27 22 27 141 27 71 0 129 -5 142 -11z"/>
<path d="M2503 456 c-18 -25 -33 -48 -33 -51 0 -3 56 -5 124 -5 110 0 126 -2
150 -21 34 -27 34 -62 -1 -89 -22 -17 -38 -20 -92 -18 l-66 3 -2 40 c-1 22 -2
46 -2 53 -1 8 -19 12 -56 12 l-55 0 0 -105 0 -105 118 0 c172 0 239 26 281
107 19 37 13 107 -11 143 -39 57 -87 74 -213 78 l-110 3 -32 -45z m270 10 c41
-16 83 -66 92 -105 10 -45 -24 -113 -71 -142 -35 -22 -52 -24 -171 -27 l-133
-4 0 92 0 91 38 -3 37 -3 3 -57 3 -58 65 0 c110 0 165 39 148 107 -12 47 -57
63 -177 63 l-108 0 21 30 c21 30 22 30 121 30 62 0 112 -5 132 -14z"/>
<path d="M103 489 c-60 -17 -89 -83 -62 -142 20 -43 46 -52 182 -57 172 -7
170 -24 -5 -30 l-136 -5 -31 -39 c-17 -21 -31 -43 -31 -47 0 -13 314 -11 366
2 26 7 53 22 64 37 28 35 26 94 -4 129 -24 28 -26 28 -160 33 -201 7 -178 24
37 28 l177 2 0 -120 0 -120 160 0 159 0 36 48 37 47 -136 3 c-112 2 -136 5
-136 17 0 12 19 15 98 15 l97 1 33 44 33 45 -131 0 c-82 0 -130 4 -130 10 0 7
50 10 143 8 l142 -3 3 -118 3 -117 158 0 158 0 37 48 37 47 -138 5 c-159 6
-184 23 -39 28 l93 3 32 39 c17 21 31 41 31 44 0 3 -59 6 -132 6 -89 0 -129 3
-122 10 7 7 114 9 300 8 l289 -3 3 -117 3 -118 54 0 54 0 3 118 3 117 56 5
c58 5 59 6 118 82 13 17 -31 18 -880 17 -513 0 -908 -5 -926 -10z m1771 -21
c-23 -40 -38 -48 -96 -48 l-58 0 0 -120 0 -120 -40 0 -39 0 -3 118 -3 117
-312 3 -313 2 0 -30 0 -30 120 0 121 0 -18 -25 c-17 -23 -23 -24 -120 -25
l-103 0 0 -35 0 -35 125 0 c69 0 125 -3 125 -7 0 -4 -10 -17 -22 -30 -21 -22
-28 -23 -170 -23 l-148 0 0 120 0 120 -160 0 -160 0 0 -30 0 -30 120 0 120 0
-16 -25 c-15 -23 -22 -24 -117 -27 l-102 -3 -3 -32 -3 -33 131 0 131 0 -23
-30 -22 -30 -148 0 -147 0 -3 118 -3 117 -170 3 c-198 3 -215 1 -215 -32 0
-31 19 -36 160 -36 141 0 160 -9 160 -75 0 -51 -25 -81 -74 -90 -17 -3 -98 -5
-179 -3 l-149 3 22 28 c21 27 23 27 138 27 130 0 158 5 166 27 13 34 -12 41
-150 45 -129 3 -137 4 -155 27 -37 45 -16 113 41 134 8 3 410 6 893 6 700 1
877 -2 871 -11z"/>
<path d="M1390 271 l0 -111 60 0 60 0 0 104 c0 59 -4 108 -10 111 -6 4 -10
-30 -10 -94 l0 -101 -40 0 -40 0 0 94 c0 53 -4 98 -10 101 -6 4 -10 -33 -10
-104z"/>
</g>
</svg>
